<svg width="1586" height="1586" viewBox="0 0 1586 1586" fill="none" xmlns="http://www.w3.org/2000/svg">
<path d="M121.499 1455.32C119.003 1453.22 116.636 1451.46 114.606 1449.37C110.435 1445.07 107.775 1439.89 106.498 1434.03C106.301 1433.12 106.164 1432.2 105.91 1431.32C103.873 1424.22 104.869 1417.43 107.322 1410.54C110.465 1401.72 114.98 1393.73 120.457 1386.22C120.911 1385.6 121.316 1384.94 121.776 1384.32C134.069 1367.79 144.005 1349.89 152.855 1331.33C157.965 1320.61 162.973 1309.87 167.325 1298.81C169.822 1292.46 171.732 1286.03 173.308 1279.42C174.489 1274.48 175.979 1269.61 176.399 1264.5C176.576 1262.36 176.868 1260.21 176.884 1258.06C176.932 1251.59 176.871 1245.11 176.851 1238.63C176.85 1238.32 176.894 1238 176.82 1237.71C175.306 1231.75 175.196 1225.51 173.135 1219.66C171.754 1215.74 170.697 1211.7 169.193 1207.82C168.088 1204.98 166.641 1202.23 165.087 1199.6C162.053 1194.44 158.946 1189.34 155.375 1184.52C152.733 1180.95 150.474 1177.1 148.032 1173.38C147.441 1172.48 146.809 1171.61 146.182 1170.73C144.48 1168.36 142.737 1166.01 141.071 1163.61C135.372 1155.41 130.209 1146.86 125.189 1138.23C123.877 1135.98 122.651 1133.67 121.333 1131.42C120.244 1129.56 119.113 1127.73 117.933 1125.92C117.011 1124.51 115.765 1123.3 115.551 1121.5C115.5 1121.07 115.204 1120.64 114.946 1120.27C110.027 1113.15 106.621 1105.18 102.257 1097.74C99.7804 1093.51 98.306 1088.71 96.2877 1084.21C95.0294 1081.4 93.5445 1078.7 92.2609 1075.9C91.0457 1073.26 89.9398 1070.56 88.8221 1067.87C85.2774 1059.34 81.7196 1050.81 78.2267 1042.25C76.1472 1037.16 74.4655 1031.89 72.0697 1026.95C70.2408 1023.18 70.0086 1018.86 67.6043 1015.37C66.9468 1011.72 64.8754 1008.56 64.1732 1004.87C63.6326 1002.04 62.4164 999.296 61.2309 996.632C59.2122 992.096 58.4949 987.177 56.8318 982.537C55.9087 979.962 55.3844 977.244 54.678 974.591C54.0059 972.067 53.3326 969.543 52.6565 967.02C51.546 962.876 49.8886 958.902 48.7356 954.779C47.5744 950.627 46.6658 946.401 45.7449 942.186C45.0587 939.045 44.5733 935.86 43.9218 932.711C42.0857 923.836 40.1574 914.979 38.3764 906.092C37.6834 902.635 37.286 899.118 36.7564 895.628C36.0906 891.241 35.4808 886.844 34.7489 882.468C33.9138 877.474 32.6365 872.527 32.1994 867.504C31.9341 864.455 31.5273 861.418 31.2608 858.37C30.9003 854.244 30.3879 850.133 29.9766 846.011C29.8241 844.483 29.7572 842.945 29.6822 841.41C29.6372 840.486 29.8054 839.528 29.6153 838.641C28.2498 832.272 29.2447 825.712 27.9982 819.33C27.7676 818.149 28.0818 816.871 28.0616 815.639C28.0112 812.557 28.0294 809.468 27.8005 806.399C27.5834 803.487 27.1431 800.616 27.4641 797.661C27.6242 796.188 27.4016 794.541 26.871 793.158C26.2417 791.516 26.0237 789.907 26.0278 788.202C26.0428 782.03 25.9921 775.857 26.0721 769.686C26.0917 768.181 26.5397 766.684 26.7471 765.177C27.0406 763.045 27.4343 760.915 27.5404 758.772C28.0973 747.532 28.3659 736.273 29.1595 725.051C29.6687 717.851 30.4258 710.655 31.2125 703.468C32.1342 695.049 33.4311 686.688 34.5086 678.299C35.3481 671.762 36.1622 665.206 37.7269 658.751C39.1385 652.928 39.8336 646.933 40.892 641.022C41.543 637.386 42.3177 633.773 42.9739 630.138C43.7659 625.75 44.421 621.337 45.2732 616.963C45.7436 614.548 46.498 612.188 47.1214 609.803C49.302 601.461 51.4476 593.11 53.679 584.782C54.4753 581.81 55.4209 578.874 56.397 575.954C60.1036 564.867 63.6025 553.701 67.6786 542.75C69.9921 536.535 71.7954 530.168 74.087 523.961C76.2179 518.189 78.4256 512.445 80.6649 506.715C82.5685 501.843 84.491 496.976 86.5448 492.167C88.1172 488.485 89.8336 484.859 91.6173 481.273C94.703 475.07 97.8943 468.92 101.035 462.744C104.945 455.054 108.741 447.303 112.788 439.685C116.467 432.758 120.339 425.93 124.271 419.142C127.206 414.076 130.314 409.107 133.461 404.168C134.861 401.971 136.594 399.989 138.091 397.85C142.861 391.033 147.574 384.176 152.353 377.366C153.227 376.12 154.32 375.029 155.292 373.85C156.071 372.905 156.963 372.016 157.559 370.962C161.821 363.427 167.134 356.609 172.035 349.508C175.875 343.944 180.087 338.698 184.556 333.636C186.683 331.227 188.565 328.604 190.602 326.114C192.352 323.974 193.932 321.615 195.998 319.829C199.985 316.384 203.153 312.217 206.728 308.415C209.14 305.85 211.53 303.23 213.606 300.397C214.902 298.628 216.331 297.087 217.957 295.662C220.28 293.629 222.409 291.475 223.888 288.658C225.789 285.038 228.796 282.32 232.177 280.089C235.549 277.863 238.488 275.164 241.374 272.368C243.475 270.333 245.726 268.452 247.909 266.501C251.011 263.726 254.113 260.95 257.214 258.173C259.741 255.909 262.245 253.621 264.794 251.384C270.473 246.403 276.153 241.424 281.875 236.494C283.975 234.685 286.189 233.008 288.366 231.29C289.334 230.526 290.411 229.887 291.314 229.055C293.12 227.391 294.887 225.745 297.34 225.007C298.188 224.751 298.941 224.085 299.659 223.508C303.25 220.62 306.803 217.684 310.399 214.803C311.357 214.035 312.362 213.286 313.446 212.724C316.878 210.945 319.918 208.649 322.884 206.19C324.63 204.742 326.368 203.195 328.784 202.694C329.932 202.456 330.983 201.62 332.009 200.949C335.237 198.84 338.441 196.693 341.634 194.532C342.524 193.93 343.441 193.32 344.179 192.553C345.923 190.742 347.903 189.446 350.286 188.536C351.967 187.894 353.447 186.637 354.894 185.499C356.6 184.156 358.383 183.025 360.343 182.06C362.39 181.051 364.222 179.599 366.126 178.31C366.631 177.968 367 177.404 367.527 177.123C370.639 175.47 373.797 173.903 376.905 172.242C379.747 170.723 382.603 169.218 385.349 167.536C389.926 164.731 394.725 162.35 399.491 159.904C402.225 158.501 404.993 157.164 407.732 155.77C409.513 154.865 411.25 153.873 413.043 152.994C414.139 152.457 415.276 151.97 416.442 151.617C423.577 149.462 430.02 145.787 436.641 142.5C440.194 140.736 443.643 138.733 447.587 137.892C448.182 137.765 448.818 137.595 449.309 137.26C452.156 135.319 455.532 134.695 458.657 133.457C463.668 131.472 468.73 129.614 473.772 127.707C474.633 127.382 475.484 127.005 476.372 126.779C479.497 125.986 482.545 125.086 485.569 123.856C490.108 122.011 494.95 120.912 499.667 119.507C500.848 119.155 502.051 118.875 503.227 118.511C506.609 117.465 509.92 116.167 513.479 115.773C514.078 115.707 514.667 115.451 515.235 115.221C520.377 113.134 525.796 111.948 531.096 110.387C534.473 109.393 538.004 108.927 541.452 108.164C547.893 106.738 554.32 105.246 560.762 103.826C565.25 102.837 569.738 101.841 574.253 100.994C579.228 100.06 584.218 99.172 589.232 98.4853C594.843 97.7167 600.399 96.5798 606.085 96.2854C610.221 96.0712 614.329 95.3565 618.46 94.9719C622.281 94.6162 626.115 94.4005 629.943 94.1289C630.404 94.0963 630.87 94.124 631.33 94.0821C636.54 93.6074 641.745 93.0602 646.962 92.6712C649.569 92.4767 652.198 92.555 654.817 92.5324C657.425 92.5099 660.032 92.7586 662.543 91.5948C663.465 91.1679 664.661 91.2483 665.732 91.2455C672.211 91.228 678.715 90.8943 685.166 91.3276C710.896 93.0559 736.656 92.2467 762.402 92.5456C763.949 92.5636 765.441 92.5143 766.881 91.718C768.569 90.7847 770.35 90.8651 772.254 91.3786C774.009 91.8519 775.903 91.9595 777.737 91.9671C826.186 92.168 874.635 92.4125 923.084 92.4881C983.569 92.5825 1044.05 92.5342 1104.54 92.543C1107.77 92.5434 1110.96 92.6181 1114.14 91.5612C1115.83 90.9973 1117.8 91.1707 1119.64 91.1675C1142.79 91.1264 1165.93 91.1121 1189.08 91.0953C1194.79 91.0911 1200.5 91.0788 1206.21 91.1223C1207.74 91.134 1209.3 91.2052 1210.8 91.4798C1213.82 92.0308 1216.78 92.9255 1219.81 93.3326C1222.79 93.7325 1225.43 94.9192 1228.04 96.2C1231.09 97.69 1234.03 99.3885 1237.08 100.875C1239.33 101.977 1241.14 103.519 1242.89 105.322C1247.7 110.263 1250.9 116.269 1254.12 122.197C1255.92 125.504 1256.61 129.373 1257.47 133.12C1258.89 139.318 1257.9 145.41 1257.11 151.469C1256.64 155.081 1255.16 158.58 1253.95 162.069C1253.3 163.952 1252.37 165.756 1251.4 167.507C1250.07 169.929 1248.38 172.055 1246.39 174.048C1241.92 178.511 1237.72 183.248 1233.46 187.92C1230.66 190.995 1228.06 194.255 1225.19 197.258C1208.22 214.978 1191.13 232.572 1174.24 250.36C1163.51 261.659 1153.13 273.29 1142.46 284.648C1129.15 298.817 1115.74 312.884 1102.32 326.947C1092.69 337.037 1082.02 345.863 1070.15 353.241C1062.11 358.243 1053.58 362.101 1044.5 364.763C1036.36 367.15 1028.14 369.2 1019.75 370.54C1007.56 372.487 995.616 375.553 983.762 378.981C980.357 379.965 976.936 380.902 973.495 381.747C964.472 383.961 955.872 387.326 947.454 391.196C940.59 394.351 933.736 397.526 926.867 400.671C920.123 403.76 913.662 407.374 907.45 411.407C891.905 421.499 876.98 432.441 862.94 444.548C858.857 448.07 854.926 451.8 851.199 455.696C831.578 476.21 812.032 496.797 792.487 517.384C785.157 525.104 778.157 533.154 770.56 540.598C754.794 556.047 738.483 570.926 720.407 583.683C705.392 594.281 689.718 603.809 672.912 611.369C670.242 612.57 667.582 613.812 664.994 615.178C653.738 621.119 641.798 625.167 629.47 628.166C619.438 630.606 609.431 633.159 599.367 635.463C591.695 637.219 583.872 638.11 576.042 638.871C562.048 640.23 548.025 640.374 533.973 640.186C521.789 640.022 509.598 640.476 497.411 640.488C474.421 640.51 451.432 640.308 428.443 640.391C402.522 640.484 376.602 640.762 350.681 641.023C345.902 641.071 341.124 641.407 336.346 641.629C327.116 642.058 318.825 645.097 311.667 650.927C300.836 659.751 293.951 670.957 291.937 684.906C291.163 690.271 291.104 695.725 291.926 701.065C294.716 719.195 297.613 737.311 300.679 755.396C304.215 776.255 309.948 796.573 316.078 816.797C323.257 840.483 333.152 863.046 343.837 885.299C352.386 903.105 361.446 920.645 372.255 937.203C384.147 955.421 396.618 973.252 409.874 990.502C420.604 1004.46 432.886 1017.1 445.002 1029.85C467.299 1053.3 492.244 1073.68 518.446 1092.59C537.886 1106.62 558.634 1118.45 579.846 1129.52C590.509 1135.08 601.187 1140.61 612.211 1145.45C627.77 1152.28 643.696 1158.05 660.201 1162.12C678.306 1166.58 696.396 1171.13 714.601 1175.15C723.761 1177.18 733.129 1178.41 742.464 1179.45C755.334 1180.88 768.248 1182.03 781.171 1182.85C791.018 1183.48 800.909 1183.65 810.779 1183.63C846.73 1183.55 882.681 1183.25 918.632 1183.16C953.349 1183.08 988.067 1183.11 1022.78 1183.18C1031.27 1183.2 1039.75 1183.62 1048.23 1183.73C1054.09 1183.8 1059.96 1183.63 1065.82 1183.62C1094.98 1183.57 1124.14 1183.56 1153.3 1183.49C1168.43 1183.45 1183.55 1183.32 1198.67 1183.21C1207.81 1183.14 1216.83 1184.23 1225.75 1186.13C1236.26 1188.37 1245.54 1192.95 1253.02 1200.83C1258.42 1206.51 1262.17 1213.19 1264.75 1220.56C1268.17 1230.33 1270.45 1240.41 1272.92 1250.43C1281.13 1283.8 1289.39 1317.17 1297.56 1350.55C1301.05 1364.77 1304.47 1379 1307.76 1393.27C1310.55 1405.36 1309.82 1417.25 1304.37 1428.51C1296.67 1444.43 1284.42 1454.93 1266.85 1458.62C1264.16 1459.19 1261.35 1459.33 1258.58 1459.38C1252.26 1459.51 1245.93 1459.43 1239.61 1459.49C1238.23 1459.5 1236.63 1459.33 1235.53 1459.95C1233.29 1461.2 1231.34 1460.92 1228.94 1460.42C1225.36 1459.68 1221.59 1459.79 1217.91 1459.56C1217.61 1459.54 1217.26 1459.58 1217.01 1459.73C1214.01 1461.42 1210.73 1460.98 1207.52 1461C1204.58 1461.03 1201.65 1461.03 1198.72 1461C1196.58 1460.97 1194.45 1461.1 1192.33 1460.34C1191.08 1459.9 1189.58 1460.11 1188.2 1460.1C1167.22 1459.95 1146.23 1459.75 1125.25 1459.68C1089.14 1459.57 1053.04 1459.53 1016.93 1459.46C1014.47 1459.46 1012.06 1459.46 1009.69 1460.55C1007.22 1461.68 1004.58 1461.2 1001.97 1460.64C999.717 1460.16 997.424 1459.82 995.132 1459.58C994.088 1459.48 992.841 1459.46 991.969 1459.92C989.644 1461.17 987.199 1461 984.746 1461C980.271 1461.02 975.796 1461.02 971.322 1461C968.564 1460.99 965.872 1460.85 963.118 1460.16C960.066 1459.39 956.703 1458.63 953.875 1461.11C949.622 1459.58 945.38 1459.25 941.038 1459.81C939.672 1459.98 938.267 1459.98 936.889 1459.9C934.136 1459.74 931.402 1459.06 928.672 1460.27C927.898 1460.62 926.843 1460.38 925.92 1460.34C920.684 1460.11 915.448 1459.85 910.212 1459.61C909.448 1459.58 908.431 1459.31 907.955 1459.68C905.644 1461.51 903.361 1460.4 901.001 1459.98C899.188 1459.66 897.313 1459.55 895.47 1459.58C894.119 1459.6 892.666 1459.76 891.451 1460.29C888.879 1461.43 886.408 1461.3 883.792 1460.56C882.026 1460.06 880.176 1459.74 878.346 1459.63C877.177 1459.55 875.86 1459.77 874.819 1460.28C873.467 1460.95 872.343 1461.05 870.882 1460.59C867.327 1459.47 863.79 1458.92 860.112 1460.68C858.744 1461.34 856.795 1460.97 855.142 1460.79C852.705 1460.52 850.3 1459.97 847.871 1459.61C846.325 1459.39 844.821 1459.45 843.451 1460.45C842.369 1461.24 841.221 1460.97 839.947 1460.62C837.891 1460.05 835.734 1459.83 833.61 1459.54C833.019 1459.46 832.371 1459.56 831.785 1459.71C829.139 1460.39 827.781 1460.36 824.859 1460.04C821.95 1459.72 819.014 1459.62 816.086 1459.52C815.183 1459.49 814.173 1459.58 813.38 1459.96C811.048 1461.08 808.597 1461 806.13 1461C788.232 1461 770.333 1461.03 752.434 1460.98C750.613 1460.98 748.797 1460.47 746.969 1460.36C741.277 1460.03 735.581 1459.74 729.883 1459.54C729.031 1459.51 728.087 1459.96 727.309 1460.4C725.847 1461.24 724.408 1461.17 722.848 1460.8C721.372 1460.44 719.852 1460.09 718.345 1460.05C708.165 1459.82 697.983 1459.65 687.801 1459.52C686.284 1459.5 684.62 1459.49 683.276 1460.07C681.338 1460.9 679.413 1461 677.406 1461C668.92 1461 660.433 1460.99 651.947 1461.02C649.93 1461.02 647.991 1460.91 646.085 1460.04C645.009 1459.55 643.697 1459.48 642.481 1459.41C636.633 1459.06 630.779 1458.81 624.931 1458.46C623.553 1458.38 622.191 1458.05 620.818 1457.85C619.293 1457.64 617.762 1457.27 616.237 1457.29C611.277 1457.34 606.401 1456.67 601.535 1455.84C601.079 1455.76 600.616 1455.66 600.158 1455.67C595.352 1455.75 590.649 1454.94 585.942 1454.1C580.937 1453.21 575.917 1452.4 570.904 1451.55C567.105 1450.91 563.282 1450.38 559.514 1449.58C552.731 1448.15 545.962 1446.64 539.234 1444.98C537.567 1444.56 536.014 1444.1 534.275 1444.36C532.047 1444.69 530.003 1444.24 528.24 1442.69C527.691 1442.21 526.941 1441.84 526.225 1441.67C519.79 1440.17 513.32 1438.8 506.906 1437.22C503.025 1436.26 499.142 1435.19 495.397 1433.81C461.567 1421.29 427.862 1408.45 394.468 1394.8C388.615 1392.41 382.752 1390.02 376.345 1389.51C363.018 1385.82 350.054 1388.31 337.216 1391.99C328.592 1394.46 320.501 1398.28 312.536 1402.39C288.546 1414.75 264.275 1426.53 239.566 1437.39C213.797 1448.72 187.033 1457.01 159.65 1463.36C157.128 1463.95 154.452 1463.89 151.844 1464.09C149.866 1464.24 147.948 1464.55 145.887 1464.34C137.065 1463.44 129.363 1459.68 121.499 1455.32Z" fill="#00D970"/>
<path d="M1303.3 1052.1C1285.05 1036.69 1270.07 1019.06 1259.64 997.784C1256.11 990.576 1253.19 983.129 1250.72 975.484C1230.43 912.567 1210.95 849.395 1191.02 786.365C1170.34 720.98 1149.16 655.758 1128.26 590.445C1118.91 561.238 1109.72 531.981 1100.46 502.748C1098.59 496.85 1097.28 490.864 1096.87 484.657C1095.89 469.785 1099.45 456.156 1108.14 444.058C1117.72 430.726 1130.27 421.44 1146.31 417.175C1151.41 415.817 1156.63 415.194 1161.87 415.18C1175.9 415.143 1189.94 415.192 1203.98 415.47C1225.67 415.899 1246.93 419.454 1267.86 425.009C1298.46 433.13 1327.37 445.216 1354.11 462.282C1378.59 477.897 1400.34 496.719 1419.9 518.117C1446.03 546.698 1465.44 579.393 1479.49 615.38C1486.89 634.344 1493.09 653.715 1499.31 673.086C1513.78 718.131 1528.36 763.136 1542.83 808.182C1548.19 824.906 1553.48 841.659 1558.56 858.475C1562.3 870.889 1564.87 883.593 1566.32 896.485C1568.6 916.91 1567.43 937.099 1562.13 957.043C1557.88 973.047 1552.56 988.599 1544.44 1003.09C1524.68 1038.35 1496.04 1063.46 1458.35 1078.1C1445.2 1083.21 1431.51 1086.14 1417.42 1087.2C1389.99 1089.28 1363.62 1085.05 1338.42 1073.98C1325.78 1068.42 1314.22 1061.08 1303.3 1052.1Z" fill="#00D970"/>
<path d="M991.375 758.995C990.515 759.683 989.911 760.162 989.305 760.639C976.175 770.969 961.369 777.345 944.833 779.891C931.368 781.963 918.027 781.711 904.991 777.734C880.41 770.236 861.525 755.522 849.69 732.435C844.758 722.815 840.939 712.723 838.498 702.149C837.594 698.234 836.973 694.294 836.895 690.26C836.745 682.546 836.582 674.846 837.803 667.178C838.556 662.443 839.557 657.777 841.149 653.264C844.6 643.486 849.042 634.179 854.793 625.53C861.649 615.218 870.365 606.877 881.069 600.58C891.92 594.197 903.566 589.798 915.632 586.437C917.522 585.911 919.599 585.988 921.594 585.925C924.829 585.824 928.071 585.921 931.305 585.787C940.825 585.395 950.071 586.825 959.038 589.969C969.134 593.509 978.55 598.429 987.323 604.54C997.092 611.344 1004.86 620.05 1011.02 630.186C1018.39 642.304 1023.45 655.311 1025.51 669.388C1025.96 672.432 1026.18 675.531 1026.23 678.61C1026.39 688.503 1026.02 698.369 1023.11 707.924C1022.04 711.449 1020.73 714.936 1019.17 718.273C1016.63 723.717 1013.76 729.008 1011.09 734.395C1006.37 743.939 999.997 752.154 991.375 758.995Z" fill="#00D970"/>
</svg>
